<svg width="50" height="50" viewBox="0 0 50 50" fill="none" xmlns="http://www.w3.org/2000/svg">
<rect x="1.5" y="10.5" width="47" height="21" rx="3.5" stroke="#15295B" stroke-width="3"/>
<rect x="1.5" y="10.5" width="47" height="15" rx="3.5" stroke="#15295B" stroke-width="3"/>
<path d="M41.0207 36.0992C41.6277 35.5355 41.6629 34.5864 41.0992 33.9793C40.5355 33.3723 39.5864 33.3371 38.9793 33.9008L41.0207 36.0992ZM38.9793 49.0992C39.5864 49.6629 40.5355 49.6277 41.0992 49.0207C41.6629 48.4136 41.6277 47.4645 41.0207 46.9008L38.9793 49.0992ZM39.3133 35.6377L38.2926 34.5385L39.3133 35.6377ZM38.9793 33.9008L38.2926 34.5385L40.334 36.7368L41.0207 36.0992L38.9793 33.9008ZM38.2926 48.4615L38.9793 49.0992L41.0207 46.9008L40.334 46.2632L38.2926 48.4615ZM38.2926 34.5385C34.245 38.297 34.245 44.703 38.2926 48.4615L40.334 46.2632C37.5645 43.6915 37.5645 39.3085 40.334 36.7368L38.2926 34.5385Z" fill="#15295B"/>
<path d="M8.97932 36.0992C8.37226 35.5355 8.33711 34.5864 8.90081 33.9793C9.46451 33.3723 10.4136 33.3371 11.0207 33.9008L8.97932 36.0992ZM11.0207 49.0992C10.4136 49.6629 9.46451 49.6277 8.90081 49.0207C8.33711 48.4136 8.37226 47.4645 8.97932 46.9008L11.0207 49.0992ZM10.6867 35.6377L11.7074 34.5385L10.6867 35.6377ZM11.0207 33.9008L11.7074 34.5385L9.66603 36.7368L8.97932 36.0992L11.0207 33.9008ZM11.7074 48.4615L11.0207 49.0992L8.97932 46.9008L9.66603 46.2632L11.7074 48.4615ZM11.7074 34.5385C15.755 38.297 15.755 44.703 11.7074 48.4615L9.66603 46.2632C12.4355 43.6915 12.4355 39.3085 9.66603 36.7368L11.7074 34.5385Z" fill="#15295B"/>
<path d="M35.0207 36.0992C35.6277 35.5355 35.6629 34.5864 35.0992 33.9793C34.5355 33.3723 33.5864 33.3371 32.9793 33.9008L35.0207 36.0992ZM32.9793 49.0992C33.5864 49.6629 34.5355 49.6277 35.0992 49.0207C35.6629 48.4136 35.6277 47.4645 35.0207 46.9008L32.9793 49.0992ZM33.3133 35.6377L32.2926 34.5385L33.3133 35.6377ZM32.9793 33.9008L32.2926 34.5385L34.334 36.7368L35.0207 36.0992L32.9793 33.9008ZM32.2926 48.4615L32.9793 49.0992L35.0207 46.9008L34.334 46.2632L32.2926 48.4615ZM32.2926 34.5385C28.245 38.297 28.245 44.703 32.2926 48.4615L34.334 46.2632C31.5645 43.6915 31.5645 39.3085 34.334 36.7368L32.2926 34.5385Z" fill="#15295B"/>
<path d="M14.9793 36.0992C14.3723 35.5355 14.3371 34.5864 14.9008 33.9793C15.4645 33.3723 16.4136 33.3371 17.0207 33.9008L14.9793 36.0992ZM17.0207 49.0992C16.4136 49.6629 15.4645 49.6277 14.9008 49.0207C14.3371 48.4136 14.3723 47.4645 14.9793 46.9008L17.0207 49.0992ZM16.6867 35.6377L17.7074 34.5385L16.6867 35.6377ZM17.0207 33.9008L17.7074 34.5385L15.666 36.7368L14.9793 36.0992L17.0207 33.9008ZM17.7074 48.4615L17.0207 49.0992L14.9793 46.9008L15.666 46.2632L17.7074 48.4615ZM17.7074 34.5385C21.755 38.297 21.755 44.703 17.7074 48.4615L15.666 46.2632C18.4355 43.6915 18.4355 39.3085 15.666 36.7368L17.7074 34.5385Z" fill="#15295B"/>
<path d="M29 18H20" stroke="#EF558C" stroke-width="3" stroke-linecap="round"/>
</svg>
