<svg width="50" height="50" viewBox="0 0 50 50" fill="none" xmlns="http://www.w3.org/2000/svg">
<rect x="5.5" y="29.5" width="39" height="14" rx="3.5" stroke="#15295B" stroke-width="3"/>
<path fill-rule="evenodd" clip-rule="evenodd" d="M37.2851 7.27707C35.9102 6.21499 33.9643 6.32228 32.7144 7.52908L29.9581 10.1905C29.3621 10.7659 29.3455 11.7155 29.9209 12.3115C30.4964 12.9074 31.446 12.9241 32.0419 12.3486L34.7982 9.68724C34.9768 9.51484 35.2548 9.49951 35.4512 9.65124L38.5 12.0063V21.5689C38.5 22.3973 39.1716 23.0689 40 23.0689C40.8284 23.0689 41.5 22.3973 41.5 21.5689V11.2854C41.5003 11.2564 41.4997 11.2274 41.4983 11.1985C41.4885 10.9873 41.435 10.7876 41.3466 10.6081C41.2586 10.4285 41.1332 10.2641 40.9722 10.1272C40.9501 10.1084 40.9275 10.0903 40.9044 10.0728L37.2851 7.27707Z" fill="#EF558C"/>
<rect x="1.5" y="22.5" width="47" height="7" rx="3.5" stroke="#15295B" stroke-width="3"/>
<path d="M9 44V48.5" stroke="#15295B" stroke-width="3" stroke-linecap="round"/>
<path d="M41 44V48.5" stroke="#15295B" stroke-width="3" stroke-linecap="round"/>
</svg>
