<svg width="50" height="50" viewBox="0 0 50 50" fill="none" xmlns="http://www.w3.org/2000/svg">
<mask id="path-1-inside-1" fill="white">
<path d="M0 28C0 25.2386 2.23858 23 5 23H45C47.7614 23 50 25.2386 50 28V38C50 39.1046 49.1046 40 48 40H2C0.895432 40 0 39.1046 0 38V28Z"/>
</mask>
<path d="M0 28C0 25.2386 2.23858 23 5 23H45C47.7614 23 50 25.2386 50 28V38C50 39.1046 49.1046 40 48 40H2C0.895432 40 0 39.1046 0 38V28Z" stroke="#15295B" stroke-width="6" mask="url(#path-1-inside-1)"/>
<path d="M14.5 16C14.5 15.7239 14.7239 15.5 15 15.5H23C23.2761 15.5 23.5 15.7239 23.5 16V24C23.5 24.2761 23.2761 24.5 23 24.5H15C14.7239 24.5 14.5 24.2761 14.5 24V16Z" stroke="#EF558C" stroke-width="3"/>
<mask id="path-3-inside-2" fill="white">
<path d="M7 12C7 9.23858 9.23858 7 12 7H38C40.7614 7 43 9.23858 43 12V24C43 25.1046 42.1046 26 41 26H9C7.89543 26 7 25.1046 7 24V12Z"/>
</mask>
<path d="M7 12C7 9.23858 9.23858 7 12 7H38C40.7614 7 43 9.23858 43 12V24C43 25.1046 42.1046 26 41 26H9C7.89543 26 7 25.1046 7 24V12Z" stroke="#15295B" stroke-width="6" mask="url(#path-3-inside-2)"/>
<path d="M5 39V43.5V48" stroke="#15295B" stroke-width="3" stroke-linecap="round"/>
<path d="M45 39V43.5V48" stroke="#15295B" stroke-width="3" stroke-linecap="round"/>
<path d="M5 45H10L45 45" stroke="#15295B" stroke-width="3" stroke-linecap="round"/>
</svg>
