<svg width="50" height="50" viewBox="0 0 50 50" fill="none" xmlns="http://www.w3.org/2000/svg">
<path d="M30.5 42L30.5 42.0003C30.5001 42.0069 30.5005 42.0631 30.42 42.1859C30.3311 42.3218 30.1585 42.5128 29.8513 42.7398C29.2289 43.1996 28.2325 43.6769 26.8663 44.1038C24.1518 44.9521 20.3097 45.5 16 45.5C11.6903 45.5 7.84817 44.9521 5.1337 44.1038C3.76753 43.6769 2.77108 43.1996 2.14871 42.7398C1.84149 42.5128 1.66891 42.3218 1.57996 42.1859C1.49949 42.0631 1.49994 42.0069 1.5 42.0003L1.5 42L1.5 41.9997C1.49994 41.9931 1.49949 41.9369 1.57996 41.8141C1.66891 41.6782 1.84149 41.4872 2.14871 41.2602C2.77108 40.8004 3.76753 40.3231 5.1337 39.8962C7.84817 39.0479 11.6903 38.5 16 38.5C20.3097 38.5 24.1518 39.0479 26.8663 39.8962C28.2325 40.3231 29.2289 40.8004 29.8513 41.2602C30.1585 41.4872 30.3311 41.6782 30.42 41.8141C30.5005 41.9369 30.5001 41.9931 30.5 41.9997L30.5 42Z" stroke="#15295B" stroke-width="3"/>
<path d="M26.5 16.5C26.5 19.6966 25.1659 26 22.9467 31.5302C21.842 34.2833 20.5584 36.7397 19.1873 38.48C17.7733 40.2748 16.5161 41 15.5 41C14.4839 41 13.2267 40.2748 11.8127 38.48C10.4416 36.7397 9.15802 34.2833 8.05326 31.5302C5.83407 26 4.5 19.6966 4.5 16.5C4.5 10.4249 9.42487 5.5 15.5 5.5C21.5751 5.5 26.5 10.4249 26.5 16.5Z" fill="#FFFEFE" stroke="#15295B" stroke-width="3"/>
<circle cx="15" cy="15" r="3.5" stroke="#EF558C" stroke-width="3"/>
</svg>
