<svg width="52" height="50" viewBox="0 0 52 50" fill="none" xmlns="http://www.w3.org/2000/svg">
<path d="M6.73448 23.376C7.33859 22.2227 8.53294 21.5 9.83489 21.5H40.6574C41.8277 21.5 42.9205 22.0849 43.5696 23.0585L45.5696 26.0585C47.1202 28.3845 45.4529 31.5 42.6574 31.5H8.26346C5.6327 31.5 3.94236 28.7064 5.16305 26.376L6.73448 23.376Z" stroke="#15295B" stroke-width="3"/>
<path d="M8.5 31.5H12.5V45.5C12.5 46.6046 11.6046 47.5 10.5 47.5C9.39543 47.5 8.5 46.6046 8.5 45.5V31.5Z" stroke="#15295B" stroke-width="3"/>
<path d="M38.5 31.5H42.5V45.5C42.5 46.6046 41.6046 47.5 40.5 47.5C39.3954 47.5 38.5 46.6046 38.5 45.5V31.5Z" stroke="#15295B" stroke-width="3"/>
<path d="M16.5 21.5C16.5 22.3284 17.1716 23 18 23C18.8284 23 19.5 22.3284 19.5 21.5H16.5ZM16.5 14.5V21.5H19.5V14.5H16.5Z" fill="#15295B"/>
<path d="M31.5 21.5C31.5 22.3284 32.1716 23 33 23C33.8284 23 34.5 22.3284 34.5 21.5H31.5ZM31.5 14.5V21.5H34.5V14.5H31.5Z" fill="#15295B"/>
<mask id="path-6-inside-1" fill="white">
<path d="M14 8C14 7.44772 14.4477 7 15 7H21C21.5523 7 22 7.44772 22 8V13C22 15.2091 20.2091 17 18 17C15.7909 17 14 15.2091 14 13V8Z"/>
</mask>
<path d="M14 8C14 7.44772 14.4477 7 15 7H21C21.5523 7 22 7.44772 22 8V13C22 15.2091 20.2091 17 18 17C15.7909 17 14 15.2091 14 13V8Z" stroke="#EF558C" stroke-width="6" mask="url(#path-6-inside-1)"/>
<mask id="path-7-inside-2" fill="white">
<path d="M29 8C29 7.44772 29.4477 7 30 7H36C36.5523 7 37 7.44772 37 8V13C37 15.2091 35.2091 17 33 17C30.7909 17 29 15.2091 29 13V8Z"/>
</mask>
<path d="M29 8C29 7.44772 29.4477 7 30 7H36C36.5523 7 37 7.44772 37 8V13C37 15.2091 35.2091 17 33 17C30.7909 17 29 15.2091 29 13V8Z" stroke="#EF558C" stroke-width="6" mask="url(#path-7-inside-2)"/>
</svg>
