<svg width="50" height="50" viewBox="0 0 50 50" fill="none" xmlns="http://www.w3.org/2000/svg">
<mask id="path-1-inside-1" fill="white">
<path fill-rule="evenodd" clip-rule="evenodd" d="M15.5202 7C14.6218 7 13.8336 7.59908 13.5931 8.46471L12.0556 14H8C3.58172 14 0 17.5817 0 22V34C0 38.4183 3.58172 42 8 42H42C46.4183 42 50 38.4183 50 34V22C50 17.5817 46.4183 14 42 14H37.6389L35.9325 8.41556C35.6755 7.5745 34.8993 7 34.0198 7H15.5202Z"/>
</mask>
<path d="M13.5931 8.46471L10.7026 7.66178V7.66178L13.5931 8.46471ZM12.0556 14V17H14.3358L14.9461 14.8029L12.0556 14ZM37.6389 14L34.7698 14.8767L35.4186 17H37.6389V14ZM35.9325 8.41556L33.0635 9.29222L33.0635 9.29222L35.9325 8.41556ZM16.4837 9.26765C16.3635 9.70046 15.9694 10 15.5202 10V4C13.2741 4 11.3037 5.49769 10.7026 7.66178L16.4837 9.26765ZM14.9461 14.8029L16.4837 9.26765L10.7026 7.66178L9.165 13.1971L14.9461 14.8029ZM8 17H12.0556V11H8V17ZM3 22C3 19.2386 5.23858 17 8 17V11C1.92487 11 -3 15.9249 -3 22H3ZM3 34V22H-3V34H3ZM8 39C5.23858 39 3 36.7614 3 34H-3C-3 40.0751 1.92487 45 8 45V39ZM42 39H8V45H42V39ZM47 34C47 36.7614 44.7614 39 42 39V45C48.0751 45 53 40.0751 53 34H47ZM47 22V34H53V22H47ZM42 17C44.7614 17 47 19.2386 47 22H53C53 15.9249 48.0751 11 42 11V17ZM37.6389 17H42V11H37.6389V17ZM33.0635 9.29222L34.7698 14.8767L40.5079 13.1233L38.8016 7.53891L33.0635 9.29222ZM34.0198 10C33.5801 10 33.192 9.71275 33.0635 9.29222L38.8016 7.53891C38.1591 5.43624 36.2185 4 34.0198 4V10ZM15.5202 10H34.0198V4H15.5202V10Z" fill="#15295B" mask="url(#path-1-inside-1)"/>
<circle cx="24.5" cy="26.5" r="6" stroke="#EF558C" stroke-width="3"/>
</svg>
