<svg width="50" height="50" viewBox="0 0 50 50" fill="none" xmlns="http://www.w3.org/2000/svg">
<rect x="48.5" y="12.5" width="26" height="47" rx="3.5" transform="rotate(90 48.5 12.5)" stroke="#15295B" stroke-width="3"/>
<path d="M21 38V42.5V47" stroke="#15295B" stroke-width="3"/>
<path d="M29 38V42.5V47" stroke="#15295B" stroke-width="3"/>
<path d="M15 46.5C14.1716 46.5 13.5 47.1716 13.5 48C13.5 48.8284 14.1716 49.5 15 49.5V46.5ZM34 49.5C34.8284 49.5 35.5 48.8284 35.5 48C35.5 47.1716 34.8284 46.5 34 46.5V49.5ZM15 49.5H24.5V46.5H15V49.5ZM24.5 49.5H34V46.5H24.5V49.5Z" fill="#15295B"/>
<path d="M22.0212 21.0236C22.0212 20.6387 22.4379 20.3982 22.7712 20.5906L29.3571 24.3929C29.6904 24.5854 29.6904 25.0665 29.3571 25.259L22.7712 29.0613C22.4379 29.2537 22.0212 29.0132 22.0212 28.6283L22.0212 21.0236Z" stroke="#EF558C" stroke-width="3"/>
</svg>
