<svg width="50" height="50" viewBox="0 0 50 50" fill="none" xmlns="http://www.w3.org/2000/svg">
<path d="M0.5 22C0.5 22.8284 1.17157 23.5 2 23.5C2.82843 23.5 3.5 22.8284 3.5 22H0.5ZM38.5 22C38.5 22.8284 39.1716 23.5 40 23.5C40.8284 23.5 41.5 22.8284 41.5 22H38.5ZM3.5 22C3.5 20.0726 5.01172 17.9678 8.26359 16.2563C11.4462 14.5813 15.9467 13.5 21 13.5V10.5C15.5599 10.5 10.5604 11.6573 6.86635 13.6016C3.24158 15.5093 0.5 18.4046 0.5 22H3.5ZM21 13.5C26.0533 13.5 30.5538 14.5813 33.7364 16.2563C36.9883 17.9678 38.5 20.0726 38.5 22H41.5C41.5 18.4046 38.7584 15.5093 35.1336 13.6016C31.4396 11.6573 26.4401 10.5 21 10.5V13.5Z" fill="#15295B"/>
<path d="M7.5 28C7.5 28.8284 8.17157 29.5 9 29.5C9.82843 29.5 10.5 28.8284 10.5 28H7.5ZM30.5 28C30.5 28.8284 31.1716 29.5 32 29.5C32.8284 29.5 33.5 28.8284 33.5 28H30.5ZM10.5 28C10.5 27.1839 11.1631 26.078 13.0621 25.0872C14.8886 24.1343 17.5158 23.5 20.5 23.5V20.5C17.1329 20.5 14.0101 21.2088 11.6744 22.4275C9.41124 23.6083 7.5 25.5023 7.5 28H10.5ZM20.5 23.5C23.4842 23.5 26.1114 24.1343 27.9379 25.0872C29.8369 26.078 30.5 27.1839 30.5 28H33.5C33.5 25.5023 31.5888 23.6083 29.3256 22.4275C26.9899 21.2088 23.8671 20.5 20.5 20.5V23.5Z" fill="#15295B"/>
<path d="M11.5 37C11.5 37.8284 12.1716 38.5 13 38.5C13.8284 38.5 14.5 37.8284 14.5 37H11.5ZM25.5 37C25.5 37.8284 26.1716 38.5 27 38.5C27.8284 38.5 28.5 37.8284 28.5 37H25.5ZM14.5 37C14.5 36.666 14.7505 36.0705 15.7945 35.4739C16.796 34.9016 18.2797 34.5 20 34.5V31.5C17.8543 31.5 15.838 31.9938 14.306 32.8692C12.8165 33.7204 11.5 35.1248 11.5 37H14.5ZM20 34.5C21.7203 34.5 23.204 34.9016 24.2055 35.4739C25.2495 36.0705 25.5 36.666 25.5 37H28.5C28.5 35.1248 27.1835 33.7204 25.694 32.8692C24.162 31.9938 22.1457 31.5 20 31.5V34.5Z" fill="#15295B"/>
<circle cx="20" cy="44" r="3.5" stroke="#EF558C" stroke-width="3"/>
</svg>
